<?xml version="1.0" encoding="UTF-8" standalone="no"?>
<!-- Generator: Adobe Illustrator 18.1.1, SVG Export Plug-In . SVG Version: 6.00 Build 0)  -->

<svg
   xmlns:dc="http://purl.org/dc/elements/1.1/"
   xmlns:cc="http://creativecommons.org/ns#"
   xmlns:rdf="http://www.w3.org/1999/02/22-rdf-syntax-ns#"
   xmlns:svg="http://www.w3.org/2000/svg"
   xmlns="http://www.w3.org/2000/svg"
   xmlns:sodipodi="http://sodipodi.sourceforge.net/DTD/sodipodi-0.dtd"
   xmlns:inkscape="http://www.inkscape.org/namespaces/inkscape"
   version="1.1"
   id="Layer_1"
   x="0px"
   y="0px"
   width="159px"
   height="88px"
   viewBox="0 0 159 88"
   enable-background="new 0 0 159 88"
   xml:space="preserve"
   inkscape:version="0.91 r13725"
   sodipodi:docname="backspace-black.svg"><metadata
   id="metadata27"><rdf:RDF><cc:Work
       rdf:about=""><dc:format>image/svg+xml</dc:format><dc:type
         rdf:resource="http://purl.org/dc/dcmitype/StillImage" /></cc:Work></rdf:RDF></metadata><defs
   id="defs25" /><sodipodi:namedview
   pagecolor="#ffffff"
   bordercolor="#666666"
   borderopacity="1"
   objecttolerance="10"
   gridtolerance="10"
   guidetolerance="10"
   inkscape:pageopacity="0"
   inkscape:pageshadow="2"
   inkscape:window-width="1920"
   inkscape:window-height="1028"
   id="namedview23"
   showgrid="false"
   inkscape:zoom="5.3544438"
   inkscape:cx="84.579448"
   inkscape:cy="66.868033"
   inkscape:window-x="-8"
   inkscape:window-y="-8"
   inkscape:window-maximized="1"
   inkscape:current-layer="Layer_1" />
<g
   id="g3">
	<rect
   fill="none"
   width="159"
   height="88"
   id="rect5" />
	<g
   id="g7">
		<g
   id="g9">
			<path
   fill="#868482"
   d="M158.8,88H44L0,44L44,0h114.8V88z M48.7,76.7h98.8V11.3H48.7L16,44L48.7,76.7z"
   id="path11" />
		</g>
		<g
   id="g13">
			<g
   id="g15">
				
					<rect
   x="87.3"
   y="16.2"
   transform="matrix(-0.7071 -0.7071 0.7071 -0.7071 127.5895 140.8497)"
   fill="#868482"
   width="11.3"
   height="55.7"
   id="rect17" />
			</g>
			<g
   id="g19">
				
					<rect
   x="65.1"
   y="38.4"
   transform="matrix(-0.7071 -0.7071 0.7071 -0.7071 127.5954 140.8499)"
   fill="#868482"
   width="55.7"
   height="11.3"
   id="rect21" />
			</g>
		</g>
	</g>
</g>
<path
   style="fill:#000000;fill-opacity:1"
   d="M 21.921212,66.066607 -0.11596382,44.028837 21.921212,21.991067 43.958388,-0.04670286 l 57.475922,0 57.47592,0 0,44.07553986 0,44.075539 -57.47592,0 -57.475922,0 -22.037176,-22.037769 z m 125.409848,-22.131151 0,-32.589752 -49.258547,0 -49.258552,0 -16.340764,16.341564 -16.340765,16.341567 16.247381,16.248186 16.247383,16.248188 49.351933,0 49.351931,0 0,-32.589753 z"
   id="path3355"
   inkscape:connector-curvature="0" /><path
   style="fill:#000000;fill-opacity:1"
   d="m 73.186644,63.731699 -4.012496,-4.015754 7.841887,-7.843554 7.841886,-7.843554 -7.841905,-7.843573 -7.841905,-7.843573 4.10632,-4.109504 4.106321,-4.109505 7.845979,7.84435 7.845981,7.844351 7.841918,-7.843583 7.84191,-7.843582 3.96988,3.966658 c 2.18343,2.181662 3.96988,4.051813 3.96988,4.155891 0,0.104079 -3.48776,3.676236 -7.75058,7.938128 l -7.75058,7.748894 7.75058,7.75223 c 4.26282,4.263725 7.75058,7.836632 7.75058,7.939794 0,0.103161 -1.80709,1.993189 -4.01576,4.200062 l -4.01575,4.012495 -7.84355,-7.841886 -7.843558,-7.841886 -7.798086,7.796427 c -4.288947,4.288036 -7.840469,7.796428 -7.892271,7.796428 -0.0518,0 -1.899808,-1.807089 -4.106681,-4.015754 z"
   id="path3357"
   inkscape:connector-curvature="0" /></svg>