<?xml version="1.0" encoding="UTF-8" standalone="no"?>
<!-- Generator: Adobe Illustrator 18.1.1, SVG Export Plug-In . SVG Version: 6.00 Build 0)  -->

<svg
   xmlns:dc="http://purl.org/dc/elements/1.1/"
   xmlns:cc="http://creativecommons.org/ns#"
   xmlns:rdf="http://www.w3.org/1999/02/22-rdf-syntax-ns#"
   xmlns:svg="http://www.w3.org/2000/svg"
   xmlns="http://www.w3.org/2000/svg"
   xmlns:sodipodi="http://sodipodi.sourceforge.net/DTD/sodipodi-0.dtd"
   xmlns:inkscape="http://www.inkscape.org/namespaces/inkscape"
   version="1.1"
   id="Layer_1"
   x="0px"
   y="0px"
   width="170px"
   height="119px"
   viewBox="0 0 170 119"
   enable-background="new 0 0 170 119"
   xml:space="preserve"
   inkscape:version="0.91 r13725"
   sodipodi:docname="check-black.svg"><metadata
   id="metadata11"><rdf:RDF><cc:Work
       rdf:about=""><dc:format>image/svg+xml</dc:format><dc:type
         rdf:resource="http://purl.org/dc/dcmitype/StillImage" /></cc:Work></rdf:RDF></metadata><defs
   id="defs9" /><sodipodi:namedview
   pagecolor="#ffffff"
   bordercolor="#666666"
   borderopacity="1"
   objecttolerance="10"
   gridtolerance="10"
   guidetolerance="10"
   inkscape:pageopacity="0"
   inkscape:pageshadow="2"
   inkscape:window-width="1920"
   inkscape:window-height="1028"
   id="namedview7"
   showgrid="false"
   inkscape:zoom="1.7705882"
   inkscape:cx="85"
   inkscape:cy="59.5"
   inkscape:window-x="-8"
   inkscape:window-y="-8"
   inkscape:window-maximized="1"
   inkscape:current-layer="Layer_1" />
<g
   id="g3">
	<polygon
   fill="#868482"
   points="62.3,119 0,56.7 11.3,45.3 62.3,96.3 158.7,0 170,11.3  "
   id="polygon5" />
</g>
<path
   style="fill:#000000;fill-opacity:1"
   d="M 30.822729,87.837684 -0.4769712,56.534172 5.1257654,50.844329 c 3.0815048,-3.129414 5.8563806,-5.689844 6.1663906,-5.689844 0.31001,0 11.938289,11.372531 25.840622,25.272285 L 62.409745,95.69906 110.27588,47.83541 c 26.32637,-26.325007 48.12449,-47.8636492 48.44027,-47.8636492 0.31578,0 3.10827,2.543667 6.20553,5.6525932 l 5.63138,5.652593 -53.9299,53.932127 C 86.961704,94.871742 62.564812,119.1412 62.407836,119.1412 c -0.156971,0 -14.370271,-14.08658 -31.585107,-31.303516 z"
   id="path3339"
   inkscape:connector-curvature="0" /></svg>