<?xml version="1.0" encoding="UTF-8" standalone="no"?>
<!-- Generator: Adobe Illustrator 18.1.1, SVG Export Plug-In . SVG Version: 6.00 Build 0)  -->

<svg
   xmlns:dc="http://purl.org/dc/elements/1.1/"
   xmlns:cc="http://creativecommons.org/ns#"
   xmlns:rdf="http://www.w3.org/1999/02/22-rdf-syntax-ns#"
   xmlns:svg="http://www.w3.org/2000/svg"
   xmlns="http://www.w3.org/2000/svg"
   xmlns:sodipodi="http://sodipodi.sourceforge.net/DTD/sodipodi-0.dtd"
   xmlns:inkscape="http://www.inkscape.org/namespaces/inkscape"
   version="1.1"
   id="Layer_1"
   x="0px"
   y="0px"
   width="211px"
   height="80px"
   viewBox="0 0 211 80"
   enable-background="new 0 0 211 80"
   xml:space="preserve"
   inkscape:version="0.91 r13725"
   sodipodi:docname="enter-black.svg"><metadata
   id="metadata19"><rdf:RDF><cc:Work
       rdf:about=""><dc:format>image/svg+xml</dc:format><dc:type
         rdf:resource="http://purl.org/dc/dcmitype/StillImage" /></cc:Work></rdf:RDF></metadata><defs
   id="defs17" /><sodipodi:namedview
   pagecolor="#ffffff"
   bordercolor="#666666"
   borderopacity="1"
   objecttolerance="10"
   gridtolerance="10"
   guidetolerance="10"
   inkscape:pageopacity="0"
   inkscape:pageshadow="2"
   inkscape:window-width="1920"
   inkscape:window-height="1028"
   id="namedview15"
   showgrid="false"
   inkscape:zoom="1.4265403"
   inkscape:cx="105.5"
   inkscape:cy="40"
   inkscape:window-x="-8"
   inkscape:window-y="-8"
   inkscape:window-maximized="1"
   inkscape:current-layer="Layer_1" />
<g
   id="g3">
	<rect
   fill="none"
   width="211"
   height="80"
   id="rect5" />
	<g
   id="g7">
		<rect
   x="9.2"
   y="33.8"
   fill="#868482"
   width="201.8"
   height="12.3"
   id="rect9" />
		<rect
   x="198.7"
   y="10.7"
   fill="#868482"
   width="12.3"
   height="35.3"
   id="rect11" />
		<polygon
   fill="#868482"
   points="44.5,0 44.5,79.8 0,40.7   "
   id="polygon13" />
	</g>
</g>
<path
   style="fill:#000000;fill-opacity:1"
   d="M 22.288197,60.76111 C 10.257171,50.152151 0.22104746,41.267448 -0.01429956,41.017326 -0.3668875,40.642603 2.0870255,38.093227 7.6449338,33.060133 13.68811,27.587593 24.680416,17.550724 27.687883,14.759292 29.809215,12.790341 34.383887,8.595801 37.853821,5.4380914 l 6.30897,-5.74129031 0.187712,16.85691491 0.187711,16.856915 76.746676,0 76.74667,0 0,-11.566445 0,-11.566445 6.65947,0 6.65947,0 0,18.225913 0,18.225914 -83.40614,0 -83.406146,0 -0.187711,16.66028 L 44.162791,80.050127 22.288197,60.76111 Z"
   id="path3347"
   inkscape:connector-curvature="0" /></svg>