<?xml version="1.0" encoding="UTF-8" standalone="no"?>
<!-- Generator: Adobe Illustrator 18.1.1, SVG Export Plug-In . SVG Version: 6.00 Build 0)  -->

<svg
   xmlns:dc="http://purl.org/dc/elements/1.1/"
   xmlns:cc="http://creativecommons.org/ns#"
   xmlns:rdf="http://www.w3.org/1999/02/22-rdf-syntax-ns#"
   xmlns:svg="http://www.w3.org/2000/svg"
   xmlns="http://www.w3.org/2000/svg"
   xmlns:sodipodi="http://sodipodi.sourceforge.net/DTD/sodipodi-0.dtd"
   xmlns:inkscape="http://www.inkscape.org/namespaces/inkscape"
   version="1.1"
   id="Layer_1"
   x="0px"
   y="0px"
   width="144px"
   height="144px"
   viewBox="0 0 144 144"
   enable-background="new 0 0 144 144"
   xml:space="preserve"
   inkscape:version="0.91 r13725"
   sodipodi:docname="globe-black.svg"><metadata
   id="metadata15"><rdf:RDF><cc:Work
       rdf:about=""><dc:format>image/svg+xml</dc:format><dc:type
         rdf:resource="http://purl.org/dc/dcmitype/StillImage" /></cc:Work></rdf:RDF></metadata><defs
   id="defs13" /><sodipodi:namedview
   pagecolor="#ffffff"
   bordercolor="#666666"
   borderopacity="1"
   objecttolerance="10"
   gridtolerance="10"
   guidetolerance="10"
   inkscape:pageopacity="0"
   inkscape:pageshadow="2"
   inkscape:window-width="1920"
   inkscape:window-height="1028"
   id="namedview11"
   showgrid="false"
   inkscape:zoom="1.6388889"
   inkscape:cx="72"
   inkscape:cy="72"
   inkscape:window-x="-8"
   inkscape:window-y="-8"
   inkscape:window-maximized="1"
   inkscape:current-layer="Layer_1" />
<g
   id="g3">
	<rect
   fill="none"
   width="144"
   height="144"
   id="rect5" />
	<g
   id="g7">
		<path
   fill="#868482"
   d="M72,144c-39.5,0-71.8-32.1-72-71.6C-0.2,32.7,31.9,0.2,71.6,0h0.7c19.1,0.1,37.1,7.6,50.6,21.1    s21,31.5,21.1,50.5c0.1,19.2-7.3,37.4-20.8,51c-13.5,13.7-31.6,21.3-50.8,21.4C72.2,144,72.1,144,72,144z M76.3,101.3v32.3    c9-8.1,16-17.9,20.6-28.7C90.2,102.9,83.3,101.7,76.3,101.3z M47,104.9c3.2,7.4,7.5,14.3,12.8,20.6c2.4,2.9,5.1,5.6,7.9,8.1v-32.3    C60.7,101.7,53.8,102.9,47,104.9z M105.2,107.9c-3.9,9.2-9.2,17.6-15.9,25.1c10.4-2.9,19.9-8.5,27.8-16.4c0.5-0.5,1-1.1,1.6-1.6    C114.3,112.1,109.8,109.8,105.2,107.9z M25.5,114.9c7.8,8.5,17.9,14.8,29.3,18c-0.5-0.6-1.1-1.2-1.6-1.8    c-6-7.1-10.8-14.9-14.3-23.3C34.2,109.8,29.8,112.1,25.5,114.9z M108.1,99.7c5.5,2.3,10.8,5.1,15.9,8.4    c6.5-9.4,10.4-20.3,11.2-31.8h-22.9c-0.1,1.2-0.1,2.4-0.2,3.7C111.4,86.8,110.1,93.4,108.1,99.7z M8.8,76.3    C9.6,88.1,13.6,99,20,108.1c5.1-3.3,10.4-6.1,15.8-8.4c-2.4-7.5-3.7-15.4-4.1-23.4L8.8,76.3L8.8,76.3z M40.4,76.3    c0.3,7,1.5,13.8,3.6,20.4c7.7-2.4,15.7-3.8,23.7-4.1V76.3H40.4z M76.3,92.6c8,0.4,15.9,1.7,23.6,4.1c1.7-5.6,2.9-11.5,3.4-17.5    c0.1-1,0.1-2,0.2-2.9H76.3V92.6z M112.2,67.7h23c-0.8-11.5-4.6-22.4-11.2-31.8c-5.1,3.4-10.5,6.2-16.1,8.5    C110.4,51.9,111.8,59.7,112.2,67.7z M76.3,67.7h27.2c-0.4-7-1.6-13.8-3.7-20.4c-7.7,2.4-15.5,3.7-23.5,4.1V67.7z M40.5,67.7h27.2    V51.4c-7.9-0.4-15.8-1.7-23.4-4.1c-1.8,5.8-3,11.9-3.6,18.1C40.6,66.2,40.5,66.9,40.5,67.7z M8.8,67.7h23c0.1-1,0.1-2,0.2-3    c0.6-7,2-13.8,4-20.3c-5.5-2.3-10.9-5.1-16-8.5C13.6,45,9.6,55.9,8.8,67.7z M76.3,11.1v31.6c6.9-0.3,13.7-1.5,20.4-3.5    c-3.1-7.1-7.3-13.9-12.5-20C81.8,16.3,79.1,13.6,76.3,11.1z M47.3,39.2c6.7,2,13.5,3.2,20.4,3.5V11.1C58.8,19,51.9,28.6,47.3,39.2    z M88.4,10.8c0.8,0.9,1.6,1.8,2.4,2.8c5.9,6.9,10.6,14.6,14.1,22.7c4.7-2,9.3-4.3,13.7-7.2c-0.6-0.6-1.2-1.2-1.8-1.9    C108.8,19.2,99,13.6,88.4,10.8z M25.5,29.1c4.4,2.8,8.9,5.2,13.6,7.1c4-9.3,9.5-17.9,16.5-25.4C43.8,14,33.5,20.4,25.5,29.1z"
   id="path9" />
	</g>
</g>
<path
   style="fill:#000000;fill-opacity:1"
   d="M 62.601523,143.71501 C 42.197835,140.88487 23.722519,129.43995 12.069026,112.41162 8.3294365,106.94726 3.7966401,96.946414 2.0320604,90.266772 -0.28842895,81.482791 -0.66388464,66.820894 1.1997054,57.762538 6.4123676,32.425333 23.768208,12.477942 48.193891,3.7512434 55.069367,1.2948044 60.518898,0.29701495 68.949153,-0.04896866 104.73305,-1.5175653 135.62062,22.592026 142.74528,57.553301 c 1.54217,7.567575 1.68067,19.532376 0.31665,27.354279 -4.84144,27.76284 -25.69571,50.09692 -53.317438,57.10081 -7.873731,1.99649 -19.694771,2.73974 -27.142969,1.70662 z M 51.946052,130.02689 c -3.016037,-3.43508 -7.777951,-10.78244 -10.543717,-16.26834 -1.410662,-2.79805 -2.629091,-5.17674 -2.707621,-5.28597 -0.196708,-0.27363 -10.035709,4.65769 -11.542172,5.78495 -1.185951,0.88742 -1.143543,0.98196 1.504918,3.355 6.542203,5.86187 14.901369,11.06144 21.986608,13.6761 3.211973,1.18531 3.34086,1.06041 1.301984,-1.26174 z m 15.172592,-13.18872 0,-15.32455 -3.508475,0.41692 c -3.734145,0.44373 -15.553749,2.71812 -15.89405,3.05843 -0.391825,0.39182 3.706513,8.00567 6.952675,12.9166 2.751365,4.16238 11.393134,14.25714 12.205038,14.25714 0.134646,0 0.244812,-6.89604 0.244812,-15.32454 z m 19.788864,4.46622 c 3.515425,-4.65712 9.924432,-15.76736 9.39874,-16.29306 -0.357791,-0.35779 -12.055381,-2.62198 -15.916417,-3.08079 l -3.508475,-0.41692 0,15.45415 0,15.45415 3.102657,-3.02791 c 1.706461,-1.66535 4.822035,-5.30568 6.923495,-8.08962 z m 13.189642,7.18359 c 4.54963,-2.31893 10.48154,-6.4471 14.32365,-9.96819 3.52934,-3.23445 3.60763,-3.37207 2.42666,-4.26563 -1.49527,-1.13137 -11.32467,-6.09455 -11.48085,-5.79704 -0.0618,0.11773 -1.44159,2.82711 -3.0662,6.02083 -2.485126,4.88538 -5.089165,8.91308 -10.690618,16.53531 -0.807858,1.09929 -0.739385,1.09915 2.470027,-0.005 1.815504,-0.62462 4.523302,-1.75872 6.017331,-2.52022 l 0,-1.7e-4 z M 26.678926,103.78983 c 3.27633,-1.84576 6.23338,-3.36014 6.571222,-3.36527 1.856877,-0.0282 2.091258,-0.952801 1.15269,-4.546974 -1.420027,-5.437873 -2.672255,-13.093115 -2.67319,-16.341993 l -8.34e-4,-2.898305 -11.332041,0 -11.3320419,0 0.4260789,3.508475 c 0.614806,5.062521 3.039595,13.174206 5.517453,18.457627 2.292554,4.88831 4.5403,8.5314 5.267972,8.53821 0.245149,0.002 3.126361,-1.50601 6.402691,-3.35177 z m 99.995634,-0.68481 c 3.17858,-5.683827 5.69219,-12.430288 7.01966,-18.840613 1.75698,-8.484395 2.89613,-7.627119 -10.1349,-7.627119 l -11.28813,0 0,2.665837 c 0,3.191516 -1.53207,12.319444 -2.77157,16.512706 -0.4892,1.654981 -0.88945,3.201901 -0.88945,3.437609 0,0.235702 1.45211,1.01793 3.22692,1.73826 1.7748,0.72034 5.00107,2.39 7.16949,3.71035 2.16841,1.32034 4.27236,2.41032 4.67542,2.42217 0.40307,0.0118 1.74972,-1.79679 2.99256,-4.0192 z M 52.169492,94.309615 c 3.020339,-0.649043 7.619491,-1.360818 10.220339,-1.58173 l 4.728813,-0.401644 0,-7.84448 0,-7.844473 -13.206264,0 -13.206264,0 0.410798,4.423729 c 0.225938,2.433051 0.980445,6.850806 1.676681,9.817237 1.171466,4.991217 1.363538,5.364341 2.575128,5.002474 0.720084,-0.215066 3.78043,-0.922064 6.800769,-1.571113 z m 48.690698,-2.570632 c 1.15227,-5.019346 2.24699,-11.687656 2.25385,-13.728814 l 0.005,-1.372881 -13.11864,0 -13.118644,0 0,7.844473 0,7.84448 4.728813,0.40467 c 2.600848,0.222572 7.474577,1.051365 10.830509,1.841772 3.355932,0.790402 6.39471,1.47151 6.752843,1.513562 0.358127,0.04204 1.108129,-1.914211 1.666669,-4.347262 z M 31.994608,62.631305 c 0.232854,-2.669393 1.088743,-7.79811 1.901977,-11.397151 0.813232,-3.59904 1.413255,-6.601401 1.333383,-6.671912 -0.07987,-0.07051 -2.341832,-1.209149 -5.026578,-2.530304 -2.684746,-1.321156 -6.033714,-3.130675 -7.442152,-4.021154 L 20.200442,36.39173 18.91464,38.197473 c -3.946894,5.5429 -8.428041,17.844275 -9.5018426,26.083883 l -0.4174719,3.20339 11.2879555,0 11.287956,0 0.423371,-4.853441 z m 35.124036,-2.984346 0,-7.837787 -6.014148,-0.728903 C 57.796714,50.679372 52.80666,49.805921 50.015486,49.139268 47.224313,48.472615 44.748812,48.140337 44.514374,48.400874 43.971659,49.004004 42.296139,56.223535 41.50145,61.383051 40.457335,68.161961 39.070143,67.484746 54,67.484746 l 13.118644,0 0,-7.837787 z m 35.995396,6.464905 c -0.0129,-3.854233 -2.77788,-17.304494 -3.670673,-17.856271 -0.26967,-0.166665 -2.750076,0.236702 -5.512014,0.896372 -2.761933,0.65967 -7.728066,1.527407 -11.035849,1.928304 l -6.014148,0.728903 0,7.837787 0,7.837787 13.118644,0 13.11864,0 -0.005,-1.372882 2.8e-4,0 z m 31.43292,-1.830508 c -1.08265,-8.35652 -5.49651,-20.515428 -9.47638,-26.104636 l -1.30058,-1.826495 -1.63076,1.152651 c -0.89692,0.633958 -4.23924,2.453982 -7.42738,4.044498 -3.18813,1.590514 -5.89866,2.985077 -6.0234,3.099027 -0.12473,0.113951 0.33704,2.347499 1.02617,4.963442 1.40112,5.318686 2.55656,12.41593 2.55656,15.703645 l 0,2.171258 11.34539,0 11.34539,0 -0.41501,-3.20339 z m -67.428316,-36.894411 0,-15.080851 -3.426559,3.335088 c -1.884606,1.834299 -4.929979,5.345005 -6.767497,7.801569 -3.277499,4.381665 -8.690908,13.785337 -8.711003,15.131948 -0.01225,0.821136 12.04928,3.436557 17.532178,3.801675 l 1.372881,0.09142 0,-15.080852 z m 22.423729,13.130093 c 3.43983,-0.69254 6.254237,-1.504803 6.254237,-1.805029 0,-0.300225 -0.933205,-2.392399 -2.073789,-4.649275 -2.850529,-5.640355 -8.740147,-13.750205 -13.157994,-18.11821 l -3.683471,-3.641916 0,15.10361 0,15.103611 3.20339,-0.366813 c 1.761864,-0.201747 6.017796,-0.933438 9.457627,-1.625978 z M 46.552797,21.722034 c 1.021387,-1.51017 3.203265,-4.457002 4.848617,-6.548517 l 2.99155,-3.802754 -4.063553,1.529517 c -5.222564,1.965768 -8.20384,3.498071 -13.109072,6.737743 -4.210725,2.780984 -10.983051,8.565223 -10.983051,9.380618 0,0.267923 2.784355,1.906377 6.187455,3.641011 l 6.187455,3.153877 3.041766,-5.672866 c 1.672971,-3.120076 3.877446,-6.90846 4.898833,-8.418629 z M 111.7376,32.605083 c 3.31381,-1.732968 6.02511,-3.358463 6.02511,-3.612211 0,-1.549736 -11.46422,-10.226522 -17.65408,-13.361632 -4.239044,-2.147035 -10.701019,-4.449926 -9.96884,-3.552648 4.40831,5.402328 9.682175,13.20883 12.07881,17.879338 1.63635,3.188902 3.09189,5.798002 3.23453,5.798002 0.14265,0 2.97066,-1.417882 6.28447,-3.150849 z"
   id="path3343"
   inkscape:connector-curvature="0" /></svg>