<?xml version="1.0" encoding="UTF-8" standalone="no"?>
<!-- Generator: Adobe Illustrator 18.1.1, SVG Export Plug-In . SVG Version: 6.00 Build 0)  -->

<svg
   xmlns:dc="http://purl.org/dc/elements/1.1/"
   xmlns:cc="http://creativecommons.org/ns#"
   xmlns:rdf="http://www.w3.org/1999/02/22-rdf-syntax-ns#"
   xmlns:svg="http://www.w3.org/2000/svg"
   xmlns="http://www.w3.org/2000/svg"
   xmlns:sodipodi="http://sodipodi.sourceforge.net/DTD/sodipodi-0.dtd"
   xmlns:inkscape="http://www.inkscape.org/namespaces/inkscape"
   version="1.1"
   id="Layer_1"
   x="0px"
   y="0px"
   width="156px"
   height="104px"
   viewBox="0 0 156 104"
   enable-background="new 0 0 156 104"
   xml:space="preserve"
   inkscape:version="0.91 r13725"
   sodipodi:docname="handwriting-black.svg"><metadata
   id="metadata15"><rdf:RDF><cc:Work
       rdf:about=""><dc:format>image/svg+xml</dc:format><dc:type
         rdf:resource="http://purl.org/dc/dcmitype/StillImage" /></cc:Work></rdf:RDF></metadata><defs
   id="defs13" /><sodipodi:namedview
   pagecolor="#ffffff"
   bordercolor="#666666"
   borderopacity="1"
   objecttolerance="10"
   gridtolerance="10"
   guidetolerance="10"
   inkscape:pageopacity="0"
   inkscape:pageshadow="2"
   inkscape:window-width="1920"
   inkscape:window-height="1028"
   id="namedview11"
   showgrid="false"
   inkscape:zoom="1.9294872"
   inkscape:cx="78"
   inkscape:cy="52"
   inkscape:window-x="-8"
   inkscape:window-y="-8"
   inkscape:window-maximized="1"
   inkscape:current-layer="Layer_1" />
<g
   id="g3">
	<rect
   fill="none"
   width="156"
   height="104"
   id="rect5" />
	<g
   id="g7">
		<path
   fill="#868482"
   d="M37.6,103.3c-10.1,0-18.9-5-23.1-13.6C4.4,68.7,19.9,52.3,36.2,35c1.2-1.2,2.4-2.5,3.6-3.8    c5.3-5.7,5.2-11.5,3.5-14.8c-1.8-3.4-5.5-4.9-10.2-4.2c-16.5,2.6-21.2,26.4-21.2,26.6L0,36.6C0.3,35.3,6.4,4.3,31.2,0.3    c9.8-1.6,18.5,2.4,22.7,10.4c4.7,8.9,2.6,20.1-5.3,28.6c-1.2,1.3-2.4,2.6-3.6,3.8C28.3,60.9,19.1,71.6,25.4,84.5    c3.3,6.8,11.1,7.6,16.9,6.3c9.2-2.1,19.8-11.1,19.7-29.5c-0.2-28.1,16.2-41.8,30.2-44.9c14.5-3.2,28.4,3.6,34.7,17    c1.3,2.8,2.3,5.4,3.1,8.1c13.3,0.7,25.5,4.3,26,4.4l-3.4,11.5c-0.1,0-9.7-2.8-20.6-3.8c0.5,16.5-8.6,28.9-20.1,34.7    c-11.9,6-24,3.8-28.9-5.2c-3.1-5.6-1.9-14.7,2.9-22.5c7.9-13,21.3-17.4,31.5-18.8c-0.4-1.2-0.9-2.4-1.4-3.4    c-3.9-8.3-12.2-12.4-21.1-10.4c-9.7,2.2-21,12.1-20.8,33.1c0.2,25.5-15.6,38.1-29,41.3C42.5,103,40,103.3,37.6,103.3z M119.8,53.7    c-14,1.5-20.6,8.5-23.4,12.9c-3.3,5.2-3.4,9.8-2.9,10.9c1.6,2.9,7.3,3,13,0.2C117.3,72.2,120.3,62.6,119.8,53.7z"
   id="path9" />
	</g>
</g>
<path
   style="fill:#000000;fill-opacity:1"
   d="M 30.49876,102.59102 C 25.4349,101.26355 22.86752,99.854342 19.272121,96.428847 13.598839,91.023654 10.814975,83.390833 11.309436,74.596678 11.923311,63.678689 16.705099,55.684699 33.636625,37.271047 42.531239,27.597828 43.868059,25.468288 43.868059,20.97247 c 0,-5.255017 -2.751948,-8.137324 -8.085213,-8.46821 -8.943511,-0.554872 -17.609191,7.748029 -22.072955,21.148896 -0.902013,2.707974 -1.71395,5.002724 -1.804303,5.099445 C 11.645316,39.031218 0.95104446,37.190414 0.22573863,36.74215 -0.27875593,36.430355 -0.05291204,35.156465 1.2171454,31.150042 5.6090184,17.295787 13.115582,7.3962696 22.741944,2.7635354 27.434783,0.50508319 31.057419,-0.19406911 36.76754,0.05665901 40.647125,0.2270093 42.046689,0.53665753 44.83205,1.8409011 55.543038,6.8563157 59.62334,19.941762 54.110865,31.597887 52.251734,35.529014 50.40021,37.889749 42.914498,45.873508 28.218944,61.546801 23.8189,68.658582 23.860919,76.669767 c 0.06449,12.295127 11.155905,17.938378 23.404835,11.908247 6.188283,-3.046477 11.43135,-9.98672 13.303065,-17.609243 0.45496,-1.852824 1.041691,-7.100332 1.303849,-11.66113 0.903743,-15.722732 4.248549,-24.536426 12.499425,-32.936476 6.897408,-7.022111 14.050148,-10.313872 23.322259,-10.733137 15.561148,-0.70364 26.404178,7.629342 32.275228,24.803858 0.21322,0.623742 1.30439,0.913757 4.41358,1.173053 4.5903,0.382816 13.00433,1.851095 18.4189,3.214165 2.77797,0.699331 3.4879,1.070431 3.29932,1.724667 -0.13214,0.458482 -0.8927,3.107525 -1.69014,5.886761 -1.61072,5.613745 -1.43527,5.487484 -5.92619,4.26476 -2.34913,-0.639585 -14.4527,-2.839055 -15.62514,-2.839408 -0.18486,-5.7e-5 -0.49736,1.690761 -0.69445,3.757372 -0.47988,5.031979 -1.09465,7.718807 -2.69242,11.76722 -3.67922,9.322363 -11.45106,17.020128 -20.79313,20.594933 -4.6943,1.796306 -12.218559,2.237989 -16.29301,0.95642 -3.88781,-1.222869 -7.473058,-4.092906 -9.412117,-7.53452 -1.521026,-2.69966 -1.60439,-3.138461 -1.575372,-8.292359 0.02607,-4.62485 0.231885,-5.930415 1.371033,-8.695984 3.569264,-8.665271 9.612347,-15.440092 17.326126,-19.424101 4.54244,-2.346078 12.56619,-5.04935 14.9873,-5.04935 1.92449,0 1.9587,-0.827622 0.17273,-4.178449 -6.538,-12.266551 -21.909082,-13.247984 -32.504431,-2.075385 -2.605257,2.7472 -6.463821,10.39519 -7.338836,14.546193 -0.330481,1.567774 -0.808064,6.698671 -1.061297,11.401993 -0.533722,9.913033 -1.605878,14.785115 -4.61291,20.962057 -3.778936,7.762544 -9.686594,13.669689 -17.393611,17.392103 -7.297539,3.524633 -14.872969,4.425153 -21.846755,2.596993 z M 106.24585,77.4324 c 3.59828,-1.695901 8.88577,-6.683185 10.55557,-9.956257 1.53732,-3.013396 2.66037,-7.60572 2.66037,-10.878626 0,-3.123125 0.65533,-2.970748 -5.92269,-1.377159 -10.44967,2.531533 -19.530209,11.697424 -19.679948,19.864931 -0.04602,2.510429 0.09355,2.90628 1.243838,3.527575 2.075334,1.12094 7.47316,0.549099 11.14286,-1.180464 z"
   id="path3343"
   inkscape:connector-curvature="0" /></svg>