<?xml version="1.0" encoding="UTF-8" standalone="no"?>
<!-- Generator: Adobe Illustrator 18.1.1, SVG Export Plug-In . SVG Version: 6.00 Build 0)  -->

<svg
   xmlns:dc="http://purl.org/dc/elements/1.1/"
   xmlns:cc="http://creativecommons.org/ns#"
   xmlns:rdf="http://www.w3.org/1999/02/22-rdf-syntax-ns#"
   xmlns:svg="http://www.w3.org/2000/svg"
   xmlns="http://www.w3.org/2000/svg"
   xmlns:sodipodi="http://sodipodi.sourceforge.net/DTD/sodipodi-0.dtd"
   xmlns:inkscape="http://www.inkscape.org/namespaces/inkscape"
   version="1.1"
   id="Layer_1"
   x="0px"
   y="0px"
   width="144px"
   height="127px"
   viewBox="0 0 144 127"
   enable-background="new 0 0 144 127"
   xml:space="preserve"
   inkscape:version="0.91 r13725"
   sodipodi:docname="hidekeyboard-black.svg"><metadata
   id="metadata73"><rdf:RDF><cc:Work
       rdf:about=""><dc:format>image/svg+xml</dc:format><dc:type
         rdf:resource="http://purl.org/dc/dcmitype/StillImage" /></cc:Work></rdf:RDF></metadata><defs
   id="defs71" /><sodipodi:namedview
   pagecolor="#ffffff"
   bordercolor="#666666"
   borderopacity="1"
   objecttolerance="10"
   gridtolerance="10"
   guidetolerance="10"
   inkscape:pageopacity="0"
   inkscape:pageshadow="2"
   inkscape:window-width="1920"
   inkscape:window-height="1028"
   id="namedview69"
   showgrid="false"
   inkscape:zoom="7.4330709"
   inkscape:cx="107.94139"
   inkscape:cy="20.989131"
   inkscape:window-x="-8"
   inkscape:window-y="-8"
   inkscape:window-maximized="1"
   inkscape:current-layer="Layer_1" />
<g
   id="g3">
	<rect
   fill="none"
   width="144"
   height="127"
   id="rect5" />
	<g
   id="g7">
		<g
   id="g9">
			<path
   fill="#868482"
   d="M144,90.3H0V0h144V90.3z M10.9,79.4h122.2V10.9H10.9V79.4z"
   id="path11" />
		</g>
		<g
   id="g13">
			<rect
   x="19.5"
   y="20.2"
   fill="#868482"
   width="11.7"
   height="11.7"
   id="rect15" />
		</g>
		<g
   id="g17">
			<rect
   x="38.1"
   y="20.2"
   fill="#868482"
   width="11.7"
   height="11.7"
   id="rect19" />
		</g>
		<g
   id="g21">
			<rect
   x="56.8"
   y="20.2"
   fill="#868482"
   width="11.7"
   height="11.7"
   id="rect23" />
		</g>
		<g
   id="g25">
			<rect
   x="75.5"
   y="20.2"
   fill="#868482"
   width="11.7"
   height="11.7"
   id="rect27" />
		</g>
		<g
   id="g29">
			<rect
   x="94.2"
   y="20.2"
   fill="#868482"
   width="11.7"
   height="11.7"
   id="rect31" />
		</g>
		<g
   id="g33">
			<rect
   x="112.9"
   y="20.2"
   fill="#868482"
   width="11.7"
   height="11.7"
   id="rect35" />
		</g>
		<g
   id="g37">
			<rect
   x="19.5"
   y="39.7"
   fill="#868482"
   width="11.7"
   height="11.7"
   id="rect39" />
		</g>
		<g
   id="g41">
			<rect
   x="38.1"
   y="39.7"
   fill="#868482"
   width="11.7"
   height="11.7"
   id="rect43" />
		</g>
		<g
   id="g45">
			<rect
   x="56.8"
   y="39.7"
   fill="#868482"
   width="11.7"
   height="11.7"
   id="rect47" />
		</g>
		<g
   id="g49">
			<rect
   x="75.5"
   y="39.7"
   fill="#868482"
   width="11.7"
   height="11.7"
   id="rect51" />
		</g>
		<g
   id="g53">
			<rect
   x="94.2"
   y="39.7"
   fill="#868482"
   width="11.7"
   height="11.7"
   id="rect55" />
		</g>
		<g
   id="g57">
			<rect
   x="112.9"
   y="39.7"
   fill="#868482"
   width="11.7"
   height="11.7"
   id="rect59" />
		</g>
		<g
   id="g61">
			<rect
   x="38.1"
   y="59.2"
   fill="#868482"
   width="67.7"
   height="11.7"
   id="rect63" />
		</g>
		<g
   id="g65">
			<polygon
   fill="#868482"
   points="72,115.2 62.2,108.2 45.9,108.2 72,126.9 98.1,108.2 81.8,108.2    "
   id="polygon67" />
		</g>
	</g>
</g>
<path
   style="fill:#000000;fill-opacity:1"
   d="m -0.08933526,45.159729 0,-45.20351526 72.11036726,0 72.110358,0 -0.0338,45.16975626 -0.0338,45.169757 -72.076539,0.03376 -72.07653626,0.03376 0,-45.203513 z m 133.18855526,-1.25e-4 0,-34.171611 -61.078386,0 -61.07839,0 0,34.171611 0,34.17161 61.07839,0 61.078386,0 0,-34.17161 z"
   id="path3401"
   inkscape:connector-curvature="0" /><path
   style="fill:#000000;fill-opacity:1"
   d="m 112.78461,26.05579 0,-5.919491 5.91949,0 5.91949,0 0,5.919491 0,5.919492 -5.91949,0 -5.91949,0 0,-5.919492 z"
   id="path3403"
   inkscape:connector-curvature="0" /><path
   style="fill:#000000;fill-opacity:1"
   d="m 94.084394,26.05579 0,-5.919491 5.919496,0 5.91949,0 0,5.919491 0,5.919492 -5.91949,0 -5.919496,0 0,-5.919492 z"
   id="path3405"
   inkscape:connector-curvature="0" /><path
   style="fill:#000000;fill-opacity:1"
   d="m 75.384182,26.05579 0,-5.919491 5.919491,0 5.919492,0 0,5.919491 0,5.919492 -5.919492,0 -5.919491,0 0,-5.919492 z"
   id="path3407"
   inkscape:connector-curvature="0" /><path
   style="fill:#000000;fill-opacity:1"
   d="m 56.68397,26.05579 0,-5.919491 5.919491,0 5.919492,0 0,5.919491 0,5.919492 -5.919492,0 -5.919491,0 0,-5.919492 z"
   id="path3409"
   inkscape:connector-curvature="0" /><path
   style="fill:#000000;fill-opacity:1"
   d="m 37.983758,26.05579 0,-5.919491 5.919492,0 5.919491,0 0,5.919491 0,5.919492 -5.919491,0 -5.919492,0 0,-5.919492 z"
   id="path3411"
   inkscape:connector-curvature="0" /><path
   style="fill:#000000;fill-opacity:1"
   d="m 19.41808,26.05579 0,-5.919491 5.919492,0 5.919491,0 0,5.919491 0,5.919492 -5.919491,0 -5.919492,0 0,-5.919492 z"
   id="path3413"
   inkscape:connector-curvature="0" /><path
   style="fill:#000000;fill-opacity:1"
   d="m 19.41808,45.563205 0,-5.919491 5.919492,0 5.919491,0 0,5.919491 0,5.919492 -5.919491,0 -5.919492,0 0,-5.919492 z"
   id="path3415"
   inkscape:connector-curvature="0" /><path
   style="fill:#000000;fill-opacity:1"
   d="m 37.983758,45.563205 0,-5.919491 5.919492,0 5.919491,0 0,5.919491 0,5.919492 -5.919491,0 -5.919492,0 0,-5.919492 z"
   id="path3417"
   inkscape:connector-curvature="0" /><path
   style="fill:#000000;fill-opacity:1"
   d="m 56.68397,45.563205 0,-5.919491 5.919491,0 5.919492,0 0,5.919491 0,5.919492 -5.919492,0 -5.919491,0 0,-5.919492 z"
   id="path3419"
   inkscape:connector-curvature="0" /><path
   style="fill:#000000;fill-opacity:1"
   d="m 75.384182,45.563205 0,-5.919491 5.919491,0 5.919492,0 0,5.919491 0,5.919492 -5.919492,0 -5.919491,0 0,-5.919492 z"
   id="path3421"
   inkscape:connector-curvature="0" /><path
   style="fill:#000000;fill-opacity:1"
   d="m 94.084394,45.563205 0,-5.919491 5.919496,0 5.91949,0 0,5.919491 0,5.919492 -5.91949,0 -5.919496,0 0,-5.919492 z"
   id="path3423"
   inkscape:connector-curvature="0" /><path
   style="fill:#000000;fill-opacity:1"
   d="m 112.78461,45.563205 0,-5.919491 5.91949,0 5.91949,0 0,5.919491 0,5.919492 -5.91949,0 -5.91949,0 0,-5.919492 z"
   id="path3425"
   inkscape:connector-curvature="0" /><path
   style="fill:#000000;fill-opacity:1"
   d="m 37.983758,65.070621 0,-5.919492 33.969809,0 33.969813,0 0,5.919492 0,5.919491 -33.969813,0 -33.969809,0 0,-5.919491 z"
   id="path3427"
   inkscape:connector-curvature="0" /><path
   style="fill:#000000;fill-opacity:1"
   d="m 71.612428,126.75223 c -0.108348,-0.10566 -0.953749,-0.72992 -1.87867,-1.38725 -0.924921,-0.65732 -5.55625,-3.97234 -10.291843,-7.36669 -4.735593,-3.39436 -9.757867,-6.99278 -11.160609,-7.99649 l -2.55044,-1.82494 8.235902,-0.0347 8.235902,-0.0347 4.871688,3.46528 c 2.679428,1.90591 4.930545,3.44623 5.002481,3.42294 0.07194,-0.0233 2.291049,-1.5822 4.931363,-3.46425 l 4.800568,-3.4219 8.15582,0 c 4.485702,0 8.15375,0.0454 8.15122,0.1009 -0.0025,0.0555 -1.077121,0.86325 -2.387977,1.79501 -1.310857,0.93176 -5.198498,3.71214 -8.639202,6.17861 -12.822482,9.1918 -15.031312,10.76022 -15.153745,10.76022 -0.069,0 -0.214111,-0.0864 -0.322458,-0.19211 z"
   id="path3429"
   inkscape:connector-curvature="0" /></svg>