<?xml version="1.0" encoding="UTF-8" standalone="no"?>
<!-- Generator: Adobe Illustrator 18.1.1, SVG Export Plug-In . SVG Version: 6.00 Build 0)  -->

<svg
   xmlns:dc="http://purl.org/dc/elements/1.1/"
   xmlns:cc="http://creativecommons.org/ns#"
   xmlns:rdf="http://www.w3.org/1999/02/22-rdf-syntax-ns#"
   xmlns:svg="http://www.w3.org/2000/svg"
   xmlns="http://www.w3.org/2000/svg"
   xmlns:sodipodi="http://sodipodi.sourceforge.net/DTD/sodipodi-0.dtd"
   xmlns:inkscape="http://www.inkscape.org/namespaces/inkscape"
   version="1.1"
   id="Layer_1"
   x="0px"
   y="0px"
   width="148px"
   height="148px"
   viewBox="0 0 148 148"
   enable-background="new 0 0 148 148"
   xml:space="preserve"
   inkscape:version="0.91 r13725"
   sodipodi:docname="search-black.svg"><metadata
   id="metadata17"><rdf:RDF><cc:Work
       rdf:about=""><dc:format>image/svg+xml</dc:format><dc:type
         rdf:resource="http://purl.org/dc/dcmitype/StillImage" /></cc:Work></rdf:RDF></metadata><defs
   id="defs15" /><sodipodi:namedview
   pagecolor="#ffffff"
   bordercolor="#666666"
   borderopacity="1"
   objecttolerance="10"
   gridtolerance="10"
   guidetolerance="10"
   inkscape:pageopacity="0"
   inkscape:pageshadow="2"
   inkscape:window-width="1920"
   inkscape:window-height="1028"
   id="namedview13"
   showgrid="false"
   inkscape:zoom="1.5945946"
   inkscape:cx="74"
   inkscape:cy="74"
   inkscape:window-x="-8"
   inkscape:window-y="-8"
   inkscape:window-maximized="1"
   inkscape:current-layer="Layer_1" />
<g
   id="g3">
	<rect
   fill="none"
   width="148"
   height="148"
   id="rect5" />
	<g
   id="g7">
		<path
   fill="#868482"
   d="M146.8,132.7c1.6,1.6,1.6,4.1,0,5.7l-8.5,8.5c-1.6,1.6-4.1,1.6-5.7,0l-44.6-44.6c-1.6-1.6-1.6-4.1,0-5.7    l8.5-8.5c1.6-1.6,4.1-1.6,5.7,0L146.8,132.7z"
   id="path9" />
		<path
   fill="#868482"
   d="M58,12c25.4,0,46,20.6,46,46s-20.6,46-46,46c-25.4,0-46-20.6-46-46S32.6,12,58,12 M58,0C26,0,0,26,0,58    s26,58,58,58c32,0,58-26,58-58S90,0,58,0L58,0z"
   id="path11" />
	</g>
</g>
<path
   style="fill:#000000;fill-opacity:1"
   d="M 114.73919,129.20376 C 104.23222,118.65888 94.598007,109.19773 93.329847,108.17899 l -2.305739,-1.85227 -5.93312,3.17014 c -8.823365,4.71445 -15.992002,6.43243 -27.082513,6.49041 -10.400483,0.0544 -16.059289,-1.18951 -25.084746,-5.51401 C 16.522117,102.61451 5.4803698,88.814744 1.1844161,70.806072 0.05525894,66.072637 -0.09137645,63.938233 0.15872536,55.876271 0.40891491,47.811482 0.69738189,45.709031 2.1807565,41.138983 4.5222853,33.925096 7.3477108,28.487658 11.880423,22.472294 23.25838,7.3726056 41.491309,-1.0287507 60.830508,-0.08289204 84.069556,1.0537039 103.98018,15.39177 112.30833,36.987397 c 2.62491,6.806616 3.70862,12.991426 3.70862,21.165395 0,10.818456 -2.71809,21.130507 -7.76945,29.47624 l -2.13805,3.532421 20.94528,21.167997 c 25.0553,25.32174 23.77013,22.77813 15.557,30.79036 -4.05695,3.95772 -5.8059,5.25646 -7.0786,5.25646 -1.38226,0 -5.17205,-3.49428 -20.79394,-19.17251 z M 69.217832,102.22221 c 16.241313,-4.208545 28.938095,-17.12152 33.128588,-33.692691 1.04269,-4.123293 1.21989,-6.361072 0.97365,-12.296098 C 102.80227,43.752647 98.971087,34.880992 90.305085,26.095318 84.592768,20.304115 79.879212,17.36654 72.137113,14.772698 48.149302,6.7360438 22.758407,19.717895 14.426791,44.278816 12.314974,50.504279 11.9692,61.801683 13.683045,68.579023 c 4.672478,18.477142 19.142109,31.673597 38.039539,34.692447 4.213235,0.67306 12.846806,0.15528 17.495248,-1.04926 z"
   id="path3345"
   inkscape:connector-curvature="0" /></svg>