<?xml version="1.0" encoding="UTF-8" standalone="no"?>
<!-- Generator: Adobe Illustrator 18.1.1, SVG Export Plug-In . SVG Version: 6.00 Build 0)  -->

<svg
   xmlns:dc="http://purl.org/dc/elements/1.1/"
   xmlns:cc="http://creativecommons.org/ns#"
   xmlns:rdf="http://www.w3.org/1999/02/22-rdf-syntax-ns#"
   xmlns:svg="http://www.w3.org/2000/svg"
   xmlns="http://www.w3.org/2000/svg"
   xmlns:sodipodi="http://sodipodi.sourceforge.net/DTD/sodipodi-0.dtd"
   xmlns:inkscape="http://www.inkscape.org/namespaces/inkscape"
   version="1.1"
   id="Layer_1"
   x="0px"
   y="0px"
   width="144px"
   height="134px"
   viewBox="0 0 144 134"
   enable-background="new 0 0 144 134"
   xml:space="preserve"
   inkscape:version="0.91 r13725"
   sodipodi:docname="shift-black.svg"><metadata
   id="metadata15"><rdf:RDF><cc:Work
       rdf:about=""><dc:format>image/svg+xml</dc:format><dc:type
         rdf:resource="http://purl.org/dc/dcmitype/StillImage" /></cc:Work></rdf:RDF></metadata><defs
   id="defs13" /><sodipodi:namedview
   pagecolor="#ffffff"
   bordercolor="#666666"
   borderopacity="1"
   objecttolerance="10"
   gridtolerance="10"
   guidetolerance="10"
   inkscape:pageopacity="0"
   inkscape:pageshadow="2"
   inkscape:window-width="1920"
   inkscape:window-height="1028"
   id="namedview11"
   showgrid="false"
   inkscape:zoom="1.761194"
   inkscape:cx="72"
   inkscape:cy="67"
   inkscape:window-x="-8"
   inkscape:window-y="-8"
   inkscape:window-maximized="1"
   inkscape:current-layer="Layer_1" />
<g
   id="g3">
	<rect
   fill="none"
   width="144"
   height="134"
   id="rect5" />
	<g
   id="g7">
		<path
   fill="#868482"
   d="M103.6,134H40.2V77.5H0L71.9,0l71.9,77.5h-40.2V134L103.6,134z M51.7,122.5h40.5V66.1h25.4L71.9,16.8    L26.2,66.1h25.4L51.7,122.5L51.7,122.5z"
   id="path9" />
	</g>
</g>
<path
   style="fill:#000000;fill-opacity:1"
   d="m 40.014124,133.96215 c -0.208192,-0.20819 -0.378531,-12.98035 -0.378531,-28.38257 l 0,-28.004033 L 19.640783,77.42633 -0.35402774,77.277119 7.5588515,68.760169 C 18.322465,57.174859 21.637631,53.616076 26.322506,48.617652 c 2.202591,-2.350005 8.836978,-9.51066 14.743084,-15.912567 5.906105,-6.401907 12.305383,-13.300636 14.220616,-15.330509 1.915231,-2.029873 6.371543,-6.82863 9.902915,-10.6639037 3.531371,-3.8352739 6.612729,-6.90137559 6.847468,-6.81355903 0.392432,0.14681386 8.76976,9.13177043 55.470981,59.49441173 l 16.58529,17.885594 -20.14812,0.14912 -20.14813,0.14912 0,28.382661 0,28.38266 -31.701975,0 c -17.43609,0 -31.872319,-0.17034 -32.080511,-0.37853 z m 51.858757,-39.923959 0,-28.378759 12.340889,-0.153021 12.34089,-0.153021 -3.96589,-4.243383 C 107.52668,55.693716 102.40405,50.177244 93.860169,40.941469 86.858045,33.372304 81.057986,27.136804 75.174114,20.852547 l -3.355553,-3.583887 -1.472513,1.614399 c -3.039585,3.332473 -22.592362,24.460528 -25.665304,27.733043 -1.759461,1.873729 -6.39631,6.856144 -10.304109,11.072034 l -7.105089,7.665254 12.427786,0.152811 12.427787,0.152811 0,28.378969 0,28.378969 19.872881,0 19.872881,0 0,-28.378759 z"
   id="path3343"
   inkscape:connector-curvature="0" /></svg>