<?xml version="1.0" encoding="UTF-8" standalone="no"?>
<!-- Generator: Adobe Illustrator 18.1.1, SVG Export Plug-In . SVG Version: 6.00 Build 0)  -->

<svg
   xmlns:dc="http://purl.org/dc/elements/1.1/"
   xmlns:cc="http://creativecommons.org/ns#"
   xmlns:rdf="http://www.w3.org/1999/02/22-rdf-syntax-ns#"
   xmlns:svg="http://www.w3.org/2000/svg"
   xmlns="http://www.w3.org/2000/svg"
   xmlns:sodipodi="http://sodipodi.sourceforge.net/DTD/sodipodi-0.dtd"
   xmlns:inkscape="http://www.inkscape.org/namespaces/inkscape"
   version="1.1"
   id="Layer_1"
   x="0px"
   y="0px"
   width="144px"
   height="134px"
   viewBox="0 0 144 134"
   enable-background="new 0 0 144 134"
   xml:space="preserve"
   inkscape:version="0.91 r13725"
   sodipodi:docname="shift-80c342.svg"><metadata
   id="metadata15"><rdf:RDF><cc:Work
       rdf:about=""><dc:format>image/svg+xml</dc:format><dc:type
         rdf:resource="http://purl.org/dc/dcmitype/StillImage" /></cc:Work></rdf:RDF></metadata><defs
   id="defs13" /><sodipodi:namedview
   pagecolor="#ffffff"
   bordercolor="#666666"
   borderopacity="1"
   objecttolerance="10"
   gridtolerance="10"
   guidetolerance="10"
   inkscape:pageopacity="0"
   inkscape:pageshadow="2"
   inkscape:window-width="1920"
   inkscape:window-height="1028"
   id="namedview11"
   showgrid="false"
   inkscape:zoom="1.761194"
   inkscape:cx="72"
   inkscape:cy="67"
   inkscape:window-x="-8"
   inkscape:window-y="-8"
   inkscape:window-maximized="1"
   inkscape:current-layer="Layer_1" />
<g
   id="g3">
	<rect
   fill="none"
   width="144"
   height="134"
   id="rect5" />
	<g
   id="g7">
		<path
   fill="#80C342"
   d="M103.6,134H40.2V77.5H0L71.9,0l71.9,77.5h-40.2V134L103.6,134z M51.7,122.5h40.5V66.1h25.4L71.9,16.8    L26.2,66.1h25.4L51.7,122.5L51.7,122.5z"
   id="path9" />
	</g>
</g>
<path
   style="fill:#ff6600"
   d="m 40.014124,133.96215 c -0.208192,-0.20819 -0.378531,-12.98035 -0.378531,-28.38257 l 0,-28.004033 L 19.729948,77.42633 -0.17569748,77.277119 1.0949089,75.857627 C 3.8745557,72.752274 12.041119,63.942285 20.305897,55.133051 22.06382,53.259322 28.328577,46.488347 34.22758,40.086441 40.126582,33.684534 48.291889,24.871038 52.372706,20.500895 56.453524,16.130752 61.211967,11.020582 62.947028,9.1449629 64.682084,7.2693433 67.343375,4.3933263 68.86101,2.7538136 c 1.51763,-1.6395128 2.909975,-2.98093224 3.0941,-2.98093224 0.184131,0 2.48214,2.36345334 5.106689,5.25211864 2.624555,2.8886653 8.116641,8.824868 12.204635,13.191562 9.147913,9.771569 13.589756,14.553566 21.627636,23.283882 3.43517,3.731096 9.58903,10.368859 13.67524,14.750581 4.0862,4.381727 10.14662,10.905119 13.46759,14.496433 l 6.03813,6.529661 -20.13921,0.14912 -20.13921,0.14912 0,28.382661 0,28.38266 -31.701975,0 c -17.43609,0 -31.872319,-0.17034 -32.080511,-0.37853 z m 51.858757,-39.923959 0,-28.378759 12.331739,-0.153021 12.33173,-0.153021 -3.67283,-3.963828 c -2.02007,-2.180106 -5.58916,-6.017759 -7.93132,-8.52812 C 102.59004,50.351081 97.607627,44.98293 93.860169,40.932216 90.112712,36.881501 85.130297,31.519729 82.788136,29.017166 80.445975,26.514603 77.033142,22.827144 75.204059,20.822811 l -3.325602,-3.644242 -2.291638,2.511139 c -1.260406,1.381127 -5.385074,5.844389 -9.165929,9.91836 -3.78085,4.073972 -9.582017,10.333929 -12.891475,13.911017 -3.309457,3.577088 -9.229633,9.953161 -13.155948,14.169051 l -7.138753,7.665254 12.446202,0.152811 12.446203,0.152811 0,28.378969 0,28.378969 19.872881,0 19.872881,0 0,-28.378759 z"
   id="path3343"
   inkscape:connector-curvature="0" /></svg>