<?xml version="1.0" encoding="UTF-8" standalone="no"?>
<!-- Generator: Adobe Illustrator 18.1.1, SVG Export Plug-In . SVG Version: 6.00 Build 0)  -->

<svg
   xmlns:dc="http://purl.org/dc/elements/1.1/"
   xmlns:cc="http://creativecommons.org/ns#"
   xmlns:rdf="http://www.w3.org/1999/02/22-rdf-syntax-ns#"
   xmlns:svg="http://www.w3.org/2000/svg"
   xmlns="http://www.w3.org/2000/svg"
   xmlns:sodipodi="http://sodipodi.sourceforge.net/DTD/sodipodi-0.dtd"
   xmlns:inkscape="http://www.inkscape.org/namespaces/inkscape"
   version="1.1"
   id="Layer_1"
   x="0px"
   y="0px"
   width="124px"
   height="96px"
   viewBox="0 0 124 96"
   enable-background="new 0 0 124 96"
   xml:space="preserve"
   inkscape:version="0.91 r13725"
   sodipodi:docname="textmode-black.svg"><metadata
   id="metadata25"><rdf:RDF><cc:Work
       rdf:about=""><dc:format>image/svg+xml</dc:format><dc:type
         rdf:resource="http://purl.org/dc/dcmitype/StillImage" /></cc:Work></rdf:RDF></metadata><defs
   id="defs23" /><sodipodi:namedview
   pagecolor="#ffffff"
   bordercolor="#666666"
   borderopacity="1"
   objecttolerance="10"
   gridtolerance="10"
   guidetolerance="10"
   inkscape:pageopacity="0"
   inkscape:pageshadow="2"
   inkscape:window-width="1920"
   inkscape:window-height="1028"
   id="namedview21"
   showgrid="false"
   inkscape:zoom="2.4274194"
   inkscape:cx="62"
   inkscape:cy="48"
   inkscape:window-x="-8"
   inkscape:window-y="-8"
   inkscape:window-maximized="1"
   inkscape:current-layer="Layer_1" />
<g
   id="g3">
	<g
   id="g5">
		<g
   id="g7">
			<path
   fill="#868482"
   d="M55.4,70.8L46.9,49H19.4L11,70.8H2.9L30,2h6.7l27,68.8H55.4z M44.4,41.8l-8-21.2c-1-2.7-2.1-6-3.2-9.9     c-0.7,3-1.7,6.3-3,9.9l-8.1,21.2H44.4z"
   id="path9" />
			<path
   fill="#868482"
   d="M66.6,72.8H54.1L45.5,51H20.8l-8.4,21.8H0L28.7,0h9.4L66.6,72.8z M56.8,68.8h4L35.4,4h-1.9l1.7,6.2     c1.1,3.8,2.1,7.1,3.1,9.7l9,24h-28l9.1-23.9c1.2-3.5,2.2-6.7,2.9-9.6L32.8,4h-1.4L5.9,68.8h3.8L18.1,47h30.2L56.8,68.8z      M25.1,39.8h16.4l-7-18.5c-0.4-1.1-0.8-2.2-1.2-3.4c-0.4,1.1-0.7,2.2-1.2,3.4L25.1,39.8z"
   id="path11" />
		</g>
		<g
   id="g13">
			<path
   fill="#868482"
   d="M116.2,70.8l-1.5-7.3h-0.4c-2.6,3.2-5.1,5.4-7.7,6.5s-5.7,1.7-9.5,1.7c-5.1,0-9.1-1.3-12-3.9     s-4.3-6.4-4.3-11.2c0-10.4,8.3-15.8,24.9-16.3l8.7-0.3v-3.2c0-4-0.9-7-2.6-8.9s-4.5-2.9-8.3-2.9c-4.3,0-9.1,1.3-14.5,3.9l-2.4-6     c2.5-1.4,5.3-2.5,8.3-3.2s6-1.2,9.1-1.2c6.1,0,10.7,1.4,13.6,4.1s4.4,7.1,4.4,13.1v35.1H116.2z M98.7,65.3c4.8,0,8.6-1.3,11.4-4     s4.1-6.4,4.1-11.2v-4.6l-7.8,0.3c-6.2,0.2-10.6,1.2-13.4,2.9S89,53.1,89,56.7c0,2.8,0.9,5,2.6,6.4S95.6,65.3,98.7,65.3z"
   id="path15" />
			<path
   fill="#868482"
   d="M97.1,73.8c-5.6,0-10.1-1.5-13.3-4.5c-3.3-3-5-7.3-5-12.7c0-11.6,9-17.8,26.8-18.3l6.8-0.2v-1.3     c0-3.5-0.7-6.1-2.1-7.6c-1.3-1.5-3.6-2.2-6.8-2.2c-4,0-8.6,1.3-13.7,3.7l-1.9,0.9L84,22.1l1.6-0.8c2.7-1.4,5.6-2.6,8.8-3.4     c3.2-0.8,6.4-1.2,9.6-1.2c6.6,0,11.7,1.6,15,4.6c3.4,3.1,5.1,8,5.1,14.5v37.1h-9.4l-1.1-5.3c-2,2-4,3.5-6,4.4     C104.7,73.1,101.2,73.8,97.1,73.8z M103.5,23c4.4,0,7.7,1.2,9.8,3.5c2.1,2.3,3.1,5.7,3.1,10.3V42l-10.7,0.3     c-23,0.7-23,10.9-23,14.3c0,4.3,1.2,7.5,3.7,9.7c2.5,2.3,6.1,3.4,10.6,3.4c3.5,0,6.4-0.5,8.7-1.5c2.2-1,4.6-3,6.9-6l0.6-0.8h2.6     l0.7,1.6l1.2,5.7h2.1V35.8c0-5.4-1.3-9.3-3.8-11.6c-2.6-2.4-6.7-3.5-12.3-3.5c-2.8,0-5.7,0.4-8.6,1.1c-2.2,0.6-4.3,1.3-6.3,2.3     l0.9,2.3C94.9,24.1,99.4,23,103.5,23z M98.7,67.3c-3.5,0-6.4-0.9-8.5-2.7C88,62.8,87,60.1,87,56.7c0-4.3,1.7-7.6,5-9.6     c3.1-1.9,7.8-3,14.4-3.2l9.9-0.4v6.7c0,5.3-1.6,9.6-4.8,12.6C108.3,65.8,104,67.3,98.7,67.3z M112.2,47.6l-5.7,0.2     c-5.8,0.2-10,1.1-12.4,2.6C92,51.8,91,53.8,91,56.7c0,2.2,0.6,3.8,1.9,4.9c1.3,1.1,3.3,1.7,5.8,1.7c4.3,0,7.6-1.1,10-3.4     c2.4-2.3,3.5-5.5,3.5-9.7V47.6z"
   id="path17" />
		</g>
	</g>
	<rect
   y="88"
   fill="#868482"
   width="124"
   height="8"
   id="rect19" />
</g>
<path
   style="fill:#000000;fill-opacity:1"
   d="m -0.20598007,72.869061 c 0,-0.142184 4.21970767,-10.901437 13.37260407,-34.096968 3.799802,-9.629568 8.652094,-21.957475 10.78287,-27.395349 2.130777,-5.4378736 4.05456,-10.310047 4.275073,-10.82705178 0.389169,-0.91242455 0.542394,-0.93660217 5.221574,-0.82392027 L 38.26678,-0.15813953 51.901045,34.652492 c 7.498848,19.145847 13.949612,35.598505 14.335034,36.561461 l 0.700773,1.750831 -6.522725,0 -6.522722,0 L 49.60351,62.048166 45.315615,51.131548 33.159114,51.131222 21.002613,51.130897 16.840601,61.94485 12.678588,72.758804 6.236304,72.872254 c -3.5432562,0.0624 -6.44228407,0.06096 -6.44228407,-0.0032 z M 40.990033,39.333494 c 0,-0.598477 -7.583666,-20.304424 -7.74998,-20.138109 -0.0997,0.0997 -1.898325,4.730633 -3.996935,10.290954 l -3.815654,10.109674 7.781285,0 c 4.279706,0 7.781284,-0.118133 7.781284,-0.262519 z"
   id="path3353"
   inkscape:connector-curvature="0" /><path
   style="fill:#000000;fill-opacity:1"
   d="m -0.20598007,91.91495 0,-4.119601 62.20598007,0 62.20598,0 0,4.119601 0,4.119601 -62.20598,0 -62.20598007,0 0,-4.119601 z"
   id="path3355"
   inkscape:connector-curvature="0" /><path
   style="fill:#000000;fill-opacity:1"
   d="m 90.520062,73.150001 c -7.653144,-2.060414 -11.834024,-7.978646 -11.77186,-16.663622 0.03578,-4.999316 1.024853,-7.747569 3.933723,-10.930335 2.378151,-2.602077 6.896912,-5.001108 11.5147,-6.113208 3.106935,-0.748242 10.594185,-1.485887 15.135375,-1.49114 l 3.04628,-0.0035 -0.25318,-2.711273 c -0.49679,-5.319937 -2.74483,-7.584225 -7.84227,-7.89894 -3.67291,-0.226765 -7.357501,0.600863 -12.548145,2.818549 -2.131326,0.910603 -3.926979,1.599535 -3.990341,1.530961 -0.06336,-0.06857 -0.986987,-2.246006 -2.052502,-4.838739 -2.243254,-5.458545 -2.422946,-4.964333 2.559096,-7.038362 5.726602,-2.383991 8.789801,-2.989557 15.357032,-3.035948 5.1153,-0.03613 6.3949,0.09036 8.90731,0.880527 5.31121,1.670404 8.55501,4.588439 10.52274,9.46596 0.95831,2.375437 0.96134,2.442703 1.08472,24.112979 l 0.12372,21.730897 -4.91017,0 -4.91016,0 -0.49117,-2.496561 -0.49116,-2.496561 -1.60367,1.448819 c -3.44874,3.115724 -7.66886,4.367259 -14.617539,4.335023 -2.547907,-0.01182 -5.481885,-0.276874 -6.702529,-0.605503 z M 105.08358,61.871439 c 4.44644,-1.962347 6.7636,-5.809024 6.7636,-11.228153 l 0,-2.928465 -5.16489,0.286966 c -11.255974,0.625391 -15.436096,3.003816 -15.431581,8.78033 0.002,2.577346 1.16577,4.4618 3.405643,5.514712 2.323294,1.092131 7.463898,0.882411 10.427228,-0.42539 z"
   id="path3357"
   inkscape:connector-curvature="0" /></svg>